<?xml version="1.0" encoding="utf-8"?>
<!-- Generator: Adobe Illustrator 19.2.1, SVG Export Plug-In . SVG Version: 6.00 Build 0)  -->
<svg version="1.1" id="Layer_1" xmlns="http://www.w3.org/2000/svg"  x="0px" y="0px"
	 viewBox="0 0 225 300" style="enable-background:new 0 0 225 300;" xml:space="preserve">
<style type="text/css">
	.st0{fill:#161616;}
	.st1{fill:none;stroke:#000000;stroke-width:4;stroke-miterlimit:10;}
	.st2{fill:none;}
	.st3{fill:#A1A1A1;}
</style>
<g transform="translate(0.000000,300.000000) scale(0.100000,-0.100000)">
	<path id="node8" class="st0" d="M1035,2839c-251-29-466-132-631-301c-244-249-347-506-330-820c6-99,12-134,42-220
		c113-325,307-532,620-662c213-88,557-88,773-1c389,158,644,505,668,910c13,222-64,466-203,650c-64,84-200,220-269,267
		c-140,96-306,159-472,178C1136,2851,1135,2851,1035,2839z M1230,2790c243-26,421-112,594-288c192-194,273-357,306-616
		c25-201-34-444-151-618c-148-219-346-361-605-433c-79-22-326-31-423-16c-321,50-622,285-756,590c-84,191-103,361-62,558
		c43,209,134,380,278,524c170,169,384,275,606,298C1127,2801,1125,2801,1230,2790z"/>
	<path id="node9" class="st0" d="M917,2595c-60-41-44-73,19-40c36,19,56,19,99,1c33-14,35-14,35,4c0,26-47,60-84,60
		C969,2620,938,2609,917,2595z"/>
	<path id="node10" class="st0" d="M1301,2594c-54-45-34-80,24-44c38,23,62,21,90-10c44-49,62-2,19,49C1400,2630,1346,2632,1301,2594
		z"/>
	<path id="node11" class="st0" d="M643,2521c-34-16-69-41-78-55c-27-41,0-63,37-29c17,15,19,15,38-2c42-38,50-100,50-394
		c0-325,15-703,31-781c15-76,64-154,124-198c45-34,55-37,110-36c143,3,226,86,328,329c82,197,86,211,162,530c20,83,50,191,67,240
		c26,76,39,98,85,145c30,30,66,74,81,98c17,27,33,41,42,39c8-3,21-6,29-8c28-7,23,31-7,61c-23,22-40,30-67,30c-42,0-58-24-29-44
		c17-13,17-16-10-55c-116-167-333-267-521-240c-99,14-232,87-330,183c-36,35-115,134-115,145c0,3,16,15,35,25c19,11,35,22,35,27
		s-24,19-33,19C706,2550,677,2537,643,2521z M812,2251c78-63,199-126,274-141c90-19,205-8,296,28c42,16,79,28,81,26
		c5-6-62-227-72-237c-4-4-61-11-127-14c-151-7-301,10-420,48c-91,29-91,29-98,67c-7,46-8,272,0,272C749,2300,779,2278,812,2251z
		 M969,1735c33-17,41-33,41-83c0-77,44-85,71-12c24,66,56,85,139,85c63,0,70-2,93-29c23-26,24-31,11-65c-7-20-37-99-65-176
		c-60-162-112-258-178-325c-39-41-53-49-97-55c-90-12-142,23-190,129c-24,53-27,75-35,235c-5,97-11,186-14,198c-8,34,4,53,53,84
		C850,1754,922,1760,969,1735z"/>
	<path id="node12" class="st0" d="M1709,2098c-20-79-16-179,7-218c25-44,49-58,72-44c33,21,43,55,38,132c-6,79-22,125-55,160
		C1737,2162,1723,2156,1709,2098z M1770,2050c13-32,18-155,7-166c-12-13-34,16-41,54c-6,42,3,142,14,142
		C1754,2080,1763,2066,1770,2050z"/>
</g>
<g transform="translate(0.000000,300.000000) scale(0.100000,-0.100000)">
	<path id="node14" class="st1" d="M1017,2789c-222-23-436-129-606-298c-144-144-235-315-278-524c-41-197-22-367,62-558
		c134-305,435-540,756-590c97-15,344-6,423,16c259,72,457,214,605,433c117,174,176,417,151,618c-33,259-114,422-306,616
		c-173,176-351,262-594,288C1125,2801,1127,2801,1017,2789z M1044,2599c14-11,26-29,26-39c0-18-2-18-35-4c-43,18-63,18-99-1
		c-63-33-79-1-19,40C963,2625,1008,2627,1044,2599z M1434,2589c43-51,25-98-19-49c-28,31-52,33-90,10c-58-36-78-1-24,44
		C1346,2632,1400,2630,1434,2589z M724,2544c24-9,19-19-19-40c-19-10-35-22-35-25c0-11,79-110,115-145c98-96,231-169,330-183
		c188-27,405,73,521,240c27,39,27,42,10,55c-29,20-13,44,29,44c27,0,44-8,67-30c30-30,35-68,7-61c-8,2-21,5-29,8c-9,2-25-12-42-39
		c-15-24-51-68-81-98c-46-47-59-69-85-145c-17-49-47-157-67-240c-76-319-80-333-162-530c-102-243-185-326-328-329c-55-1-65,2-110,36
		c-60,44-109,122-124,198c-16,78-31,456-31,781c0,294-8,356-50,394c-19,17-21,17-38,2c-37-34-64-12-37,29c12,19,122,84,142,84
		C708,2550,715,2547,724,2544z M1771,2128c33-35,49-81,55-160c5-77-5-111-38-132c-23-14-47,0-72,44c-23,39-27,139-7,218
		C1723,2156,1737,2162,1771,2128z"/>
	<path id="node15" class="st2" d="M740,2183c0-65,3-135,6-155c7-38,7-38,98-67c119-38,269-55,420-48c66,3,123,10,127,14
		c10,10,77,231,72,237c-2,2-39-10-81-26c-91-36-206-47-296-28c-75,15-196,78-274,141c-33,27-63,49-66,49S740,2247,740,2183z"/>
	<path id="node16" class="st2" d="M798,1721c-49-31-61-50-53-84c3-12,9-101,14-198c8-160,11-182,35-235c48-106,100-141,190-129
		c44,6,58,14,97,55c66,67,118,163,178,325c28,77,58,156,65,176c13,34,12,39-11,65c-23,27-30,29-93,29c-83,0-115-19-139-85
		c-27-73-71-65-71,12c0,50-8,66-41,83C922,1760,850,1754,798,1721z"/>
	<path id="node17" class="st3" d="M1737,2028c-8-64,1-124,20-139c21-18,27-4,26,66c0,62-17,125-33,125
		C1746,2080,1740,2056,1737,2028z"/>
</g>
</svg>
